<svg xmlns="http://www.w3.org/2000/svg" width="512" height="512" viewBox="0 0 512 512">
  <defs>
    <radialGradient id="bg" cx="48%" cy="42%" r="65%">
      <stop offset="0%" stop-color="#3D3935"/>
      <stop offset="100%" stop-color="#1a1a18"/>
    </radialGradient>
    <linearGradient id="ripple1" x1="0%" y1="0%" x2="100%" y2="100%">
      <stop offset="0%" stop-color="#9CA995"/>
      <stop offset="100%" stop-color="#C49A7C"/>
    </linearGradient>
    <linearGradient id="ripple2" x1="0%" y1="0%" x2="100%" y2="100%">
      <stop offset="0%" stop-color="#A8B3A3"/>
      <stop offset="100%" stop-color="#C8A488"/>
    </linearGradient>
    <linearGradient id="ripple3" x1="0%" y1="0%" x2="100%" y2="100%">
      <stop offset="0%" stop-color="#B5BDAF"/>
      <stop offset="100%" stop-color="#CCAE96"/>
    </linearGradient>
    <radialGradient id="glow" cx="50%" cy="50%" r="50%">
      <stop offset="0%" stop-color="rgba(196,154,124,0.08)"/>
      <stop offset="60%" stop-color="rgba(156,169,149,0.04)"/>
      <stop offset="100%" stop-color="transparent"/>
    </radialGradient>
    <filter id="softGlow">
      <feGaussianBlur in="SourceGraphic" stdDeviation="3"/>
    </filter>
  </defs>
  <rect x="0" y="0" width="512" height="512" rx="112" ry="112" fill="url(#bg)"/>
  <circle cx="256" cy="260" r="180" fill="url(#glow)"/>
  <g fill="none" stroke-linecap="round">
    <path d="M 138,185 A 130,130 0 1,1 374,185" stroke="url(#ripple3)" stroke-width="2" opacity="0.3"/>
    <path d="M 168,200 A 100,100 0 1,1 344,200" stroke="url(#ripple2)" stroke-width="2.5" opacity="0.45"/>
    <path d="M 194,215 A 72,72 0 1,1 318,215" stroke="url(#ripple1)" stroke-width="3.5" opacity="0.65"/>
    <path d="M 218,230 A 46,46 0 1,1 294,230" stroke="url(#ripple1)" stroke-width="5" opacity="0.85"/>
  </g>
  <circle cx="256" cy="256" r="10" fill="#C49A7C" opacity="0.9"/>
  <circle cx="253" cy="253" r="4" fill="rgba(255,255,255,0.15)" filter="url(#softGlow)"/>
</svg>